# xmcd CD database file
#
# Track frame offsets:
#	150
#	27274
#	72297
#	92348
#	118155
#	151868
#	192705
#	220220
#	248277
#	283321
#	311707
#
# Disc length: 4417 seconds
#
# Revision: 1
# Processed by: cddbd v1.5.2PL0 Copyright (c) Steve Scherf et al.
# Submitted via: CDex 1.51
#
DISCID=9a113f0b
DTITLE=Miles Davis - Cookin' and Steamin'
DYEAR=1900
DGENRE=Jazz
TTITLE0=My Funny Valentine
TTITLE1=Blues By Five
TTITLE2=Airegin
TTITLE3=Tune Up
TTITLE4=When Lights Are Low
TTITLE5=Surrey With The Fringe On Top
TTITLE6=Salt Peanuts
TTITLE7=Something I Dreamed Last Night
TTITLE8=Diane
TTITLE9=Well You Needn't
TTITLE10=When I Fall In Love
EXTD=
EXTT0=
EXTT1=
EXTT2=
EXTT3=
EXTT4=
EXTT5=
EXTT6=
EXTT7=
EXTT8=
EXTT9=
EXTT10=
PLAYORDER=
